{
  "asset": {
    "version": "2.0",
    "generator": "THREE.GLTFExporter r176"
  },
  "scenes": [
    {
      "name": "Scene",
      "nodes": [
        5,
        6,
        7
      ]
    }
  ],
  "scene": 0,
  "nodes": [
    {
      "matrix": [
        0.427405033280077,
        0,
        0,
        0,
        0,
        0.427,
        0,
        0,
        0,
        0,
        0.427,
        0,
        0,
        0,
        0,
        1
      ],
      "name": "Star_Star_0",
      "extras": {
        "name": "Star_Star_0"
      },
      "mesh": 0
    },
    {
      "matrix": [
        100,
        0,
        0,
        0,
        0,
        -0.000016292067894774224,
        -99.99999999999866,
        0,
        0,
        99.99999999999866,
        -0.000016292067894774224,
        0,
        0,
        0,
        0,
        1
      ],
      "name": "Star",
      "extras": {
        "name": "Star"
      },
      "children": [
        0
      ]
    },
    {
      "name": "RootNode",
      "extras": {
        "name": "RootNode"
      },
      "children": [
        1
      ]
    },
    {
      "matrix": [
        0.009999999776482582,
        0,
        0,
        0,
        0,
        2.2204459996194763e-18,
        0.009999999776482582,
        0,
        0,
        -0.009999999776482582,
        2.2204459996194763e-18,
        0,
        0,
        0,
        0,
        1
      ],
      "name": "037754053a0b43d8bd494290884e5758fbx",
      "extras": {
        "name": "037754053a0b43d8bd494290884e5758.fbx"
      },
      "children": [
        2
      ]
    },
    {
      "matrix": [
        1,
        0,
        0,
        0,
        0,
        2.220446049250313e-16,
        -1,
        0,
        0,
        1,
        2.220446049250313e-16,
        0,
        0,
        0,
        0,
        1
      ],
      "name": "Sketchfab_model",
      "extras": {
        "name": "Sketchfab_model"
      },
      "children": [
        3
      ]
    },
    {
      "matrix": [
        1,
        0,
        0,
        0,
        0,
        1,
        0,
        0,
        0,
        0,
        1,
        0,
        0.4972838919891407,
        0.9768381608366639,
        -2.000382936111887,
        1
      ],
      "name": "scene.gltf",
      "children": [
        4
      ]
    },
    {
      "name": "AmbientLight"
    },
    {
      "matrix": [
        1,
        0,
        0,
        0,
        0,
        1,
        0,
        0,
        0,
        0,
        1,
        0,
        0,
        10,
        0,
        1
      ],
      "name": "HemisphereLight"
    }
  ],
  "bufferViews": [
    {
      "buffer": 0,
      "byteOffset": 0,
      "byteLength": 1200,
      "target": 34962,
      "byteStride": 12
    },
    {
      "buffer": 0,
      "byteOffset": 1200,
      "byteLength": 1200,
      "target": 34962,
      "byteStride": 12
    },
    {
      "buffer": 0,
      "byteOffset": 2400,
      "byteLength": 1600,
      "target": 34962,
      "byteStride": 16
    },
    {
      "buffer": 0,
      "byteOffset": 4000,
      "byteLength": 800,
      "target": 34962,
      "byteStride": 8
    },
    {
      "buffer": 0,
      "byteOffset": 4800,
      "byteLength": 800,
      "target": 34962,
      "byteStride": 8
    },
    {
      "buffer": 0,
      "byteOffset": 5600,
      "byteLength": 800,
      "target": 34962,
      "byteStride": 8
    },
    {
      "buffer": 0,
      "byteOffset": 6400,
      "byteLength": 480,
      "target": 34963
    }
  ],
  "buffers": [
    {
      "byteLength": 6880,
      "uri": "data:application/octet-stream;base64,"
    }
  ],
  "accessors": [
    {
      "bufferView": 0,
      "componentType": 5126,
      "count": 100,
      "max": [
        0.9706989526748657,
        0.9103502035140991,
        0.9974461197853088
      ],
      "min": [
        -0.9706989526748657,
        -0.9103502035140991,
        -0.8489331007003784
      ],
      "type": "VEC3"
    },
    {
      "bufferView": 1,
      "componentType": 5126,
      "count": 100,
      "max": [
        28.618574142456055,
        5.73111629486084,
        30.09134864807129
      ],
      "min": [
        -28.618576049804688,
        -5.73111629486084,
        -24.344417572021484
      ],
      "type": "VEC3"
    },
    {
      "bufferView": 2,
      "componentType": 5126,
      "count": 100,
      "max": [
        0.07985256612300873,
        1,
        0,
        1
      ],
      "min": [
        -0.9586524963378906,
        -1,
        -0.9943915605545044,
        1
      ],
      "type": "VEC4"
    },
    {
      "bufferView": 3,
      "componentType": 5126,
      "count": 100,
      "max": [
        1,
        0.710787296295166
      ],
      "min": [
        0,
        0
      ],
      "type": "VEC2"
    },
    {
      "bufferView": 4,
      "componentType": 5126,
      "count": 100,
      "max": [
        1,
        0.710787296295166
      ],
      "min": [
        0,
        0
      ],
      "type": "VEC2"
    },
    {
      "bufferView": 5,
      "componentType": 5126,
      "count": 100,
      "max": [
        1,
        0.710787296295166
      ],
      "min": [
        0,
        0
      ],
      "type": "VEC2"
    },
    {
      "bufferView": 6,
      "componentType": 5125,
      "count": 120,
      "max": [
        99
      ],
      "min": [
        0
      ],
      "type": "SCALAR"
    }
  ],
  "materials": [
    {
      "pbrMetallicRoughness": {
        "metallicFactor": 1,
        "roughnessFactor": 1,
        "metallicRoughnessTexture": {
          "index": 0,
          "texCoord": 0
        },
        "baseColorTexture": {
          "index": 1,
          "texCoord": 0
        }
      },
      "emissiveFactor": [
        0.8468732315065057,
        0.7529422167708612,
        0.0009105809505882353
      ],
      "emissiveTexture": {
        "index": 1,
        "texCoord": 0
      },
      "normalTexture": {
        "index": 2,
        "texCoord": 0
      },
      "doubleSided": true,
      "name": "Star",
      "extensions": {
        "KHR_materials_ior": {
          "ior": 3.3103448275862073
        },
        "KHR_materials_specular": {
          "specularFactor": 0.35,
          "specularColorFactor": [
            1,
            1,
            1
          ]
        }
      }
    }
  ],
  "textures": [
    {
      "sampler": 0,
      "source": 0
    },
    {
      "sampler": 1,
      "source": 1
    },
    {
      "sampler": 2,
      "source": 2
    }
  ],
  "samplers": [
    {
      "magFilter": 9729,
      "minFilter": 9987,
      "wrapS": 33071,
      "wrapT": 33071
    },
    {
      "magFilter": 9729,
      "minFilter": 9987,
      "wrapS": 33071,
      "wrapT": 33071
    },
    {
      "magFilter": 9729,
      "minFilter": 9987,
      "wrapS": 33071,
      "wrapT": 33071
    }
  ],
  "images": [
    {
      "mimeType": "image/png",
      "uri": "data:image/png;base64,"
    },
    {
      "mimeType": "image/png",
      "uri": "data:image/png;base64,"
    },
    {
      "mimeType": "image/png",
      "uri": "data:image/png;base64,"
    }
  ],
  "meshes": [
    {
      "primitives": [
        {
          "mode": 4,
          "attributes": {
            "NORMAL": 0,
            "POSITION": 1,
            "TANGENT": 2,
            "TEXCOORD_0": 3,
            "TEXCOORD_1": 4,
            "TEXCOORD_2": 5
          },
          "indices": 6,
          "material": 0
        }
      ]
    }
  ],
  "extensionsUsed": [
    "KHR_materials_ior",
    "KHR_materials_specular"
  ]
}